<?xml version="1.0" standalone="no"?>
<!DOCTYPE svg PUBLIC "-//W3C//DTD SVG 20010904//EN"
 "http://www.w3.org/TR/2001/REC-SVG-20010904/DTD/svg10.dtd">
<svg version="1.0" xmlns="http://www.w3.org/2000/svg"
 width="360.000000pt" height="140.000000pt" viewBox="0 0 360.000000 140.000000"
 preserveAspectRatio="xMidYMid meet">

<g transform="translate(0.000000,140.000000) scale(0.100000,-0.100000)"
fill="#000000" stroke="none">
<path d="M0 700 l0 -700 1800 0 1800 0 0 700 0 700 -1800 0 -1800 0 0 -700z
m959 204 c-9 -11 -15 -12 -25 -3 -11 9 -12 15 -3 25 9 11 15 12 25 3 11 -9 12
-15 3 -25z m1561 -54 l0 -90 -39 0 c-46 0 -71 20 -71 56 0 42 18 64 50 64 25
0 30 4 30 23 0 25 7 37 22 37 4 0 8 -40 8 -90z m307 74 c8 -21 -13 -42 -28
-27 -13 13 -5 43 11 43 6 0 13 -7 17 -16z m-2313 -51 l19 -46 20 47 c23 50 51
61 61 24 3 -13 6 -49 6 -80 0 -45 -3 -58 -15 -58 -10 0 -15 10 -15 28 0 46
-15 58 -30 23 -17 -41 -36 -39 -57 7 l-17 37 -4 -47 c-3 -41 -6 -48 -24 -48
-16 0 -19 4 -14 23 3 12 6 48 6 80 0 52 2 57 23 57 17 0 26 -11 41 -47z m777
37 c21 -12 26 -59 8 -77 -9 -9 -8 -18 5 -37 21 -32 20 -36 -3 -36 -11 0 -28
13 -38 30 -9 17 -21 30 -25 30 -4 0 -8 -13 -8 -30 0 -23 -4 -30 -20 -30 -18 0
-20 7 -20 80 l0 80 41 0 c22 0 49 -5 60 -10z m1429 -10 c0 -13 7 -20 20 -20
11 0 20 -7 20 -15 0 -8 -9 -15 -20 -15 -16 0 -20 -7 -20 -30 0 -23 5 -30 19
-30 10 0 21 -7 25 -15 4 -12 -3 -15 -29 -15 -18 0 -37 5 -40 11 -9 13 -8 126
0 140 11 16 25 10 25 -11z m-1026 -54 c6 -16 6 -36 0 -53 -8 -24 -15 -28 -49
-28 -34 0 -42 4 -53 29 -11 21 -12 34 -3 52 22 49 88 49 105 0z m541 11 c25
-36 19 -47 -26 -47 -24 0 -38 -4 -34 -10 3 -5 19 -10 36 -10 19 0 29 -5 29
-15 0 -11 -11 -15 -39 -15 -66 0 -93 59 -47 105 27 27 58 24 81 -8z m-1475 4
c26 -50 1 -101 -50 -101 -30 0 -60 30 -60 60 0 9 7 26 16 38 20 29 79 31 94 3z
m75 -21 l12 -35 12 38 c9 25 18 37 32 37 18 0 18 -1 -2 -52 -26 -66 -27 -68
-45 -68 -15 0 -54 78 -54 107 0 28 33 8 45 -27z m125 -20 c0 -47 -3 -60 -15
-60 -12 0 -15 13 -15 60 0 47 3 60 15 60 12 0 15 -13 15 -60z m128 48 c7 -7
12 -22 12 -35 0 -20 -5 -23 -35 -23 -44 0 -46 -18 -2 -22 42 -4 37 -22 -7 -26
-21 -2 -40 3 -50 13 -20 21 -21 69 0 89 18 19 65 21 82 4z m352 -7 c20 -39 13
-51 -31 -51 -24 0 -38 -4 -34 -10 3 -5 19 -10 36 -10 19 0 29 -5 29 -15 0 -11
-11 -15 -40 -15 -31 0 -43 5 -56 25 -16 24 -13 56 8 83 17 20 76 15 88 -7z
m128 7 c-3 -7 -15 -15 -29 -18 -36 -9 -34 -54 4 -58 41 -5 35 -32 -7 -32 -25
0 -39 7 -50 22 -33 47 -6 98 50 98 24 0 34 -4 32 -12z m320 0 c6 -6 12 -32 12
-59 0 -42 -3 -49 -20 -49 -17 0 -20 7 -20 45 0 33 -4 45 -15 45 -11 0 -15 -12
-15 -45 0 -33 -4 -45 -15 -45 -11 0 -15 12 -15 45 0 33 -4 45 -15 45 -11 0
-15 -12 -15 -45 0 -38 -3 -45 -20 -45 -18 0 -20 7 -20 60 l0 59 73 0 c39 -1
78 -5 85 -11z m206 -4 c3 -9 6 -36 6 -60 0 -32 -4 -44 -14 -44 -10 0 -16 13
-18 42 -4 59 -28 63 -28 4 0 -39 -3 -46 -20 -46 -17 0 -20 7 -20 45 0 33 -4
45 -15 45 -11 0 -15 -12 -15 -45 0 -33 -4 -45 -15 -45 -8 0 -15 3 -16 8 -4 30
-5 98 -2 105 2 4 37 7 78 7 57 0 74 -3 79 -16z m274 4 c18 -18 16 -108 -3
-108 -10 0 -15 10 -15 29 0 39 -9 61 -26 61 -10 0 -14 -13 -14 -46 0 -37 -3
-45 -17 -42 -11 2 -17 12 -16 31 1 15 1 41 2 57 1 28 4 30 39 30 21 0 43 -5
50 -12z m280 -51 l3 -58 -48 3 c-46 3 -48 4 -48 33 0 25 5 32 35 42 l35 12
-32 0 c-23 1 -33 6 -33 17 0 12 9 14 43 12 l42 -3 3 -58z m182 3 c0 -53 -2
-60 -20 -60 -18 0 -20 7 -20 60 0 53 2 60 20 60 18 0 20 -7 20 -60z m128 48
c15 -15 16 -63 2 -89 -7 -13 -21 -19 -44 -19 -40 0 -59 20 -59 60 0 16 5 36
13 44 15 19 71 21 88 4z m142 -7 c5 -11 10 -38 10 -60 0 -34 -3 -41 -20 -41
-17 0 -20 7 -20 45 0 33 -4 45 -15 45 -11 0 -15 -12 -15 -45 0 -38 -3 -45 -20
-45 -18 0 -20 7 -20 60 l0 60 45 0 c34 0 47 -5 55 -19z m-1617 -207 c14 -14
-6 -30 -33 -26 -39 6 -39 -13 0 -33 34 -17 53 -47 44 -69 -13 -33 -118 -41
-112 -8 2 13 12 16 35 14 46 -5 49 15 6 35 -43 20 -54 51 -28 77 16 15 75 22
88 10z m317 -19 c0 -8 9 -15 20 -15 11 0 20 -7 20 -15 0 -8 -9 -15 -20 -15
-16 0 -20 -7 -20 -30 0 -23 4 -30 20 -30 11 0 20 -7 20 -15 0 -18 -50 -21 -68
-3 -7 7 -12 39 -12 75 0 56 2 63 20 63 11 0 20 -7 20 -15z m-245 -54 c12 -37
18 -34 29 12 4 18 13 27 26 27 19 0 19 -1 -1 -57 -27 -78 -45 -103 -74 -103
-30 0 -34 25 -5 33 l20 5 -20 47 c-11 26 -20 53 -20 62 0 28 33 8 45 -26z
m175 24 c0 -10 -10 -15 -27 -15 l-28 -1 28 -15 c22 -12 28 -21 25 -42 -3 -24
-8 -27 -45 -30 -34 -2 -43 0 -43 12 0 11 10 16 33 16 l32 0 -32 20 c-35 21
-41 38 -21 58 18 18 78 16 78 -3z m230 -4 c20 -39 13 -51 -31 -51 -24 0 -38
-4 -34 -10 3 -5 19 -10 36 -10 19 0 29 -5 29 -15 0 -19 -70 -21 -88 -3 -17 17
-15 74 4 92 22 23 71 20 84 -3z m200 -1 c6 -10 10 -37 10 -59 0 -34 -3 -41
-20 -41 -17 0 -20 7 -20 45 0 33 -4 45 -15 45 -11 0 -15 -12 -15 -45 0 -39 -3
-45 -20 -45 -12 0 -20 6 -19 13 5 38 -2 78 -13 75 -8 -3 -11 -20 -9 -46 2 -37
0 -42 -18 -42 -19 0 -21 6 -21 60 l0 59 75 0 c63 0 77 -4 85 -19z"/>
<path d="M2450 820 c0 -23 4 -30 20 -30 16 0 20 7 20 30 0 23 -4 30 -20 30
-16 0 -20 -7 -20 -30z"/>
<path d="M1230 871 c0 -15 6 -21 21 -21 25 0 22 33 -4 38 -12 2 -17 -3 -17
-17z"/>
<path d="M1624 835 c-8 -21 2 -45 20 -45 7 0 16 7 20 15 8 21 -3 45 -20 45 -8
0 -17 -7 -20 -15z"/>
<path d="M2170 840 c0 -5 9 -10 20 -10 11 0 20 5 20 10 0 6 -9 10 -20 10 -11
0 -20 -4 -20 -10z"/>
<path d="M692 823 c3 -31 32 -43 41 -18 9 23 -3 45 -25 45 -15 0 -19 -6 -16
-27z"/>
<path d="M1030 840 c0 -5 9 -10 20 -10 11 0 20 5 20 10 0 6 -9 10 -20 10 -11
0 -20 -4 -20 -10z"/>
<path d="M1375 840 c-3 -5 3 -10 14 -10 12 0 21 5 21 10 0 6 -6 10 -14 10 -8
0 -18 -4 -21 -10z"/>
<path d="M2590 800 c0 -5 7 -10 15 -10 8 0 15 5 15 10 0 6 -7 10 -15 10 -8 0
-15 -4 -15 -10z"/>
<path d="M2894 836 c-9 -24 4 -48 23 -44 12 2 18 12 18 28 0 29 -32 41 -41 16z"/>
<path d="M1895 580 c-3 -5 3 -10 14 -10 12 0 21 5 21 10 0 6 -6 10 -14 10 -8
0 -18 -4 -21 -10z"/>
</g>
</svg>
